<svg t="1574994135900" class="icon" viewBox="0 0 1024 1024" version="1.1" 
  xmlns="http://www.w3.org/2000/svg" p-id="5445" width="128" height="128">
  <path d="M881.37500029 277.62499971L530.74999971 73.25c-11.25-7.49999971-26.25000029-7.49999971-37.49999942 0L142.62499971 277.62499971c-11.25 7.49999971-18.74999971 18.74999971-18.74999971 31.87500029v405c0 13.12499971 7.49999971 26.25000029 18.74999971 31.87500029L493.25000029 950.75c11.25 7.49999971 26.25000029 7.49999971 37.49999942 0l350.62500058-202.5c11.25-7.49999971 18.74999971-18.74999971 18.74999971-31.87500029V309.5c0-13.12499971-7.49999971-26.25000029-18.74999971-31.87500029zM476.37500029 853.25000029L198.87499971 693.87499971V369.50000029l277.50000058 144.37499942v339.37500058z m37.49999942-405L240.12500029 307.62500029 512 150.12500029l281.25 163.125-279.37500029 135z m311.25000058 245.62499942l-206.25000029 118.125-69.37499971 39.375v-337.5L825.12500029 380.75000029v313.12499942z" p-id="5446"></path>
</svg>