<svg t="1574993940236" class="icon" viewBox="0 0 1024 1024" version="1.1" 
  xmlns="http://www.w3.org/2000/svg" p-id="3929" width="128" height="128">
  <path d="M95.355828 442.52144l393.774773 234.869724a43.070116 43.070116 0 0 0 45.694 0l393.83877-234.869724 89.59608 53.373665c7.615667 4.415807 7.615667 16.767266 0 21.119076l-483.43485 288.371383a43.070116 43.070116 0 0 1-45.694 0L5.695751 517.078178c-7.615667-4.415807-7.615667-16.767266 0-21.119076l89.660077-53.437662z" p-id="3930"></path>
  <path d="M95.355828 640.016799l393.774773 234.869725a43.070116 43.070116 0 0 0 45.694 0L928.663371 640.016799l89.59608 53.373665c7.615667 4.415807 7.615667 16.831264 0 21.183073L534.824601 1002.880924a43.070116 43.070116 0 0 1-45.694 0L5.695751 714.573537c-7.615667-4.35181-7.615667-16.767266 0-21.119076L95.355828 640.016799zM5.759748 298.399745c-7.679664 4.35181-7.679664 16.767266 0 21.119076l483.370853 288.307387a43.070116 43.070116 0 0 0 45.694 0l483.43485-288.307387c7.615667-4.35181 7.615667-16.767266 0-21.119076L522.345147 2.73268a19.839132 19.839132 0 0 0-20.09512 0L5.759748 298.463742z" p-id="3931"></path>
</svg>